<?xml version="1.0" encoding="UTF-8"?>
<svg id="Layer_1" data-name="Layer 1" xmlns="http://www.w3.org/2000/svg" viewBox="0 0 160 21.01">
  <defs>
    <style>
      .cls-1 {
        fill: #fff;
        stroke-width: 0px;
      }
    </style>
  </defs>
  <path class="cls-1" d="m8.55,18.18c-.2,0-.54-.01-1.04-.05l-.18-.02L3.88,1.55h3.11l2.32,11.24L15.07,1.55h2.35l2.19,11.24L25.5,1.55h3.11l-8.73,16.53-.18.02c-.35.05-.73.07-1.13.07-.09,0-.23,0-.4-.01-.18,0-.31,0-.4,0h-.16l-2.21-11.35-5.8,11.37h-1.04Z"/>
  <path class="cls-1" d="m43.8,10.88h-9.95l-.71,4.42h13.03l-.44,2.74h-15.95l2.62-16.48h15.96l-.44,2.76h-13.03l-.6,3.82h9.95l-.44,2.74Z"/>
  <path class="cls-1" d="m64.04,1.65c.6.06,1.21.19,1.82.38s1.1.45,1.47.78c.37.33.64.78.83,1.36.19.58.21,1.26.09,2.04-.23,1.38-.88,2.47-1.96,3.27.98.92,1.34,2.2,1.08,3.84-.19,1.06-.63,1.98-1.34,2.76-.55.58-1.25,1.03-2.11,1.34-.85.31-1.6.49-2.23.54s-1.42.08-2.34.08h-9.81l2.62-16.48h9.78c.78,0,1.47.03,2.07.09Zm-1.15,13.4c.86-.26,1.36-.84,1.5-1.75.09-.57.05-1.05-.14-1.45-.21-.45-.61-.73-1.17-.85-.19-.05-.48-.09-.88-.12h-8.56l-.71,4.42h7.23c1.3,0,2.22-.09,2.74-.25Zm.9-7.16c.87-.29,1.38-.84,1.52-1.66.14-.86-.18-1.42-.94-1.68-.23-.09-.63-.17-1.2-.23h-8.5l-.6,3.82h7.07c1.24,0,2.13-.09,2.65-.25Z"/>
  <path class="cls-1" d="m73.04,1.55h2.23l9.97,11.86,1.89-11.86h2.97l-2.62,16.48h-2.28l-9.95-11.88-1.91,11.88h-2.92l2.62-16.48Z"/>
  <path class="cls-1" d="m98.57,18.18c-.2,0-.55-.01-1.04-.05l-.18-.02-3.46-16.55h3.11l2.33,11.24,5.75-11.24h2.35l2.19,11.24,5.9-11.24h3.11l-8.73,16.53-.19.02c-.35.05-.73.07-1.12.07-.09,0-.23,0-.4-.01-.18,0-.31,0-.4,0h-.16l-2.21-11.35-5.8,11.37h-1.03Z"/>
  <path class="cls-1" d="m126.39,1.55l7.16,16.48h-3.38l-2.12-4.95-6.98.02-3.68,4.93h-3.34L126.39,1.55Zm-.9,5.66l-2.42,3.25h3.84l-1.43-3.25Z"/>
  <path class="cls-1" d="m152.32,1.72c.72.11,1.41.32,2.08.62.68.31,1.16.78,1.44,1.43.28.64.35,1.45.19,2.42l-.09.65c-.44,2.75-2.42,4.28-5.91,4.6l5.29,6.61h-3.96l-5.23-6.56h-4.79l-1.03,6.56h-2.97l2.62-16.48h9.79c1,0,1.85.05,2.56.16Zm-1.86,6.98c.34-.03.72-.1,1.14-.22.41-.12.73-.31.95-.59.22-.28.37-.64.45-1.11l.09-.57c.14-.86-.19-1.43-.97-1.7-.41-.12-.84-.19-1.27-.19-.17-.01-.64-.02-1.42-.02h-6.98l-.71,4.44h7.27c.62,0,1.1-.01,1.44-.05Z"/>
</svg>